<?xml version="1.0" encoding="UTF-8"?>
<svg width="862px" height="162px" viewBox="0 0 862 162" version="1.1" xmlns="http://www.w3.org/2000/svg" xmlns:xlink="http://www.w3.org/1999/xlink">
    <!-- Generator: Sketch 55.2 (78181) - https://sketchapp.com -->
    <title>BuildSupply@2x</title>
    <desc>Created with Sketch.</desc>
    <g id="Page-1" stroke="none" stroke-width="1" fill="none" fill-rule="evenodd">
        <g id="BuildSupply">
            <path d="M30.86,42.84 L29.8,42.84 C29.9464363,42.8283751 30.0935637,42.8283751 30.24,42.84 L30.41,42.84 C30.5598165,42.8295058 30.7101835,42.8295058 30.86,42.84 Z" id="Path" fill="#F47721"></path>
            <path d="M141.46,127.39 L141.46,29.06 L156.23,29.06 C161.51617,28.9248815 166.798954,29.4387187 171.96,30.59 C175.660214,31.4796448 179.090814,33.2498344 181.96,35.75 C184.794528,38.3617721 187.032115,41.5544263 188.52,45.11 C190.136785,48.7152597 190.981542,52.6188543 191,56.57 C191.079837,63.435894 188.118116,69.9853603 182.91,74.46 C187.947409,76.1206497 192.284309,79.4190877 195.23,83.83 C198.32509,88.3644509 199.929528,93.7510262 199.82,99.24 C199.960206,106.592782 197.002561,113.665728 191.67,118.73 C188.615765,121.865838 184.838637,124.204224 180.67,125.54 C175.192471,126.891451 169.560433,127.513497 163.92,127.39 L141.46,127.39 Z M156.3,71.29 L160.95,71.29 C166.47,71.29 170.513333,70.07 173.08,67.63 C175.646667,65.19 176.93,61.5933333 176.93,56.84 C176.93,52.2133333 175.613333,48.7 172.98,46.3 C170.346667,43.9 166.526667,42.7 161.52,42.7 L156.3,42.7 L156.3,71.29 Z M156.3,113.45 L165.47,113.45 C172.176667,113.45 177.1,112.133333 180.24,109.5 C183.479298,106.847789 185.322345,102.855749 185.24,98.67 C185.291795,94.579511 183.535214,90.6747773 180.44,88 C177.34,85.1533333 171.8,83.73 163.82,83.73 L156.31,83.73 L156.3,113.45 Z" id="Shape" stroke="#0E3C55" fill="#0E3C55" fill-rule="nonzero"></path>
            <path d="M230.17,65.36 L230.17,101 C230.17,111.273333 234.223333,116.41 242.33,116.41 C250.436667,116.41 254.493333,111.273333 254.5,101 L254.5,65.36 L268.83,65.36 L268.83,101.28 C268.918281,105.638841 268.293373,109.982797 266.98,114.14 C265.683003,117.518473 263.557951,120.516928 260.8,122.86 C255.96,127.06 249.803333,129.16 242.33,129.16 C234.856667,129.16 228.723333,127.06 223.93,122.86 C221.138894,120.521191 218.973813,117.524445 217.63,114.14 C216.443333,111.253333 215.85,106.966667 215.85,101.28 L215.85,65.36 L230.17,65.36 Z" id="Path" stroke="#0E3C55" fill="#0E3C55" fill-rule="nonzero"></path>
            <path d="M284.75,39.57 C284.815358,34.4724734 288.952125,30.3668428 294.05,30.34 C296.540775,30.2977895 298.937636,31.2898439 300.67,33.08 C302.46422,34.7847311 303.458642,37.1655369 303.41,39.64 C303.45221,42.1307752 302.460156,44.5276364 300.67,46.26 C298.965269,48.05422 296.584463,49.0486419 294.11,49 C291.61457,49.0027603 289.221576,48.0078763 287.463625,46.2367782 C285.705674,44.4656801 284.728647,42.0653406 284.75,39.57 L284.75,39.57 Z M301.23,65.36 L301.23,127.36 L286.92,127.36 L286.92,65.36 L301.23,65.36 Z" id="Shape" stroke="#0E3C55" fill="#0E3C55" fill-rule="nonzero"></path>
            <polygon id="Path" stroke="#0E3C55" fill="#0E3C55" fill-rule="nonzero" points="333.72 19.83 333.72 127.39 319.39 127.39 319.39 19.83"></polygon>
            <path d="M397.59,19.83 L411.98,19.83 L411.98,127.39 L397.59,127.39 L397.59,120.89 C391.943333,126.41 385.553333,129.17 378.42,129.17 C370.344223,129.35149 362.602985,125.945931 357.28,119.87 C351.72,113.543333 348.94,105.646667 348.94,96.18 C348.94,86.9266667 351.72,79.2 357.28,73 C362.462244,66.9117277 370.106533,63.475102 378.1,63.64 C385.36,63.64 391.856667,66.6133333 397.59,72.56 L397.59,19.83 Z M363.59,96.19 C363.59,102.136667 365.183333,106.976667 368.37,110.71 C371.407599,114.383153 375.95441,116.470637 380.72,116.38 C385.608469,116.557538 390.322095,114.548932 393.58,110.9 C396.846667,107.12 398.48,102.323333 398.48,96.51 C398.48,90.6966667 396.846667,85.9 393.58,82.12 C390.379964,78.4549421 385.702884,76.4211098 380.84,76.58 C376.092041,76.5011213 371.559156,78.5565187 368.49,82.18 C365.180019,86.0792496 363.434068,91.067681 363.59,96.18 L363.59,96.19 Z" id="Shape" stroke="#0E3C55" fill="#0E3C55" fill-rule="nonzero"></path>
            <path d="M488.41,43.71 L476.41,50.84 C474.156667,46.9333333 472.013333,44.3866667 469.98,43.2 C467.49154,41.7603445 464.64178,41.0661277 461.77,41.2 C458.039056,41.0656491 454.389588,42.3118087 451.52,44.7 C448.892448,46.799197 447.385717,49.9973058 447.44,53.36 C447.44,58.16 451.006667,62.0233333 458.14,64.95 L467.95,68.95 C475.95,72.1766667 481.786667,76.1133333 485.46,80.76 C489.133333,85.4066667 490.98,91.1066667 491,97.86 C491,106.9 488,114.373333 482,120.28 C476,126.186667 468.463333,129.16 459.39,129.2 C450.856667,129.2 443.81,126.673333 438.25,121.62 C432.69,116.566667 429.273333,109.456667 428,100.29 L443,96.98 C443.666667,102.753333 444.856667,106.753333 446.57,108.98 C449.623333,113.226667 454.08,115.35 459.94,115.35 C464.263371,115.47432 468.442504,113.788893 471.47,110.7 C474.540557,107.563069 476.195213,103.307205 476.05,98.92 C476.06785,97.1383335 475.797702,95.3654872 475.25,93.67 C474.709461,92.0625242 473.867808,90.5726634 472.77,89.28 C471.506713,87.8218455 470.037997,86.5552462 468.41,85.52 C466.385684,84.2272474 464.254598,83.1098489 462.04,82.18 L452.55,78.23 C439.09,72.5433333 432.36,64.21 432.36,53.23 C432.246008,46.0924007 435.357988,39.2842558 440.83,34.7 C446.476667,29.6933333 453.503333,27.1899036 461.91,27.1899036 C473.203333,27.1633333 482.036667,32.67 488.41,43.71 Z" id="Path" stroke="#0E3C55" fill="#0E3C55" fill-rule="nonzero"></path>
            <path d="M520.44,65.36 L520.44,101 C520.44,111.273333 524.493333,116.41 532.6,116.41 C540.706667,116.41 544.763333,111.273333 544.77,101 L544.77,65.36 L559.1,65.36 L559.1,101.28 C559.181818,105.639941 558.55015,109.983922 557.23,114.14 C555.933003,117.518473 553.807951,120.516928 551.05,122.86 C546.21,127.06 540.053333,129.16 532.58,129.16 C525.106667,129.16 518.973333,127.06 514.18,122.86 C511.388584,120.52148 509.223442,117.524648 507.88,114.14 C506.693333,111.253333 506.1,106.966667 506.1,101.28 L506.1,65.36 L520.44,65.36 Z" id="Path" stroke="#0E3C55" fill="#0E3C55" fill-rule="nonzero"></path>
            <path d="M591.51,161.14 L577.18,161.14 L577.18,65.36 L591.51,65.36 L591.51,72.11 C597.156667,66.4633333 603.566667,63.64 610.74,63.64 C618.827791,63.4398876 626.573757,66.9013204 631.82,73.06 C637.426667,79.3066667 640.23,87.1833333 640.23,96.69 C640.23,105.99 637.45,113.736667 631.89,119.93 C626.647403,125.962382 618.989992,129.345719 611,129.16 C603.74,129.16 597.243333,126.253333 591.51,120.44 L591.51,161.14 Z M625.58,96.76 C625.58,90.8133333 623.966667,85.9733333 620.74,82.24 C617.702401,78.5668469 613.15559,76.4793632 608.39,76.57 C603.52499,76.3850666 598.830099,78.3751726 595.58,82 C592.313333,85.6533333 590.68,90.45 590.68,96.39 C590.68,102.203333 592.313333,107 595.58,110.78 C598.769593,114.459306 603.453817,116.496245 608.32,116.32 C613.056384,116.425633 617.581945,114.363539 620.61,110.72 C623.964591,106.854074 625.739165,101.865988 625.58,96.75 L625.58,96.76 Z" id="Shape" stroke="#0E3C55" fill="#0E3C55" fill-rule="nonzero"></path>
            <path d="M669.71,161.14 L655.38,161.14 L655.38,65.36 L669.71,65.36 L669.71,72.11 C675.356667,66.4633333 681.766667,63.64 688.94,63.64 C697.027791,63.4398876 704.773757,66.9013204 710.02,73.06 C715.626667,79.3 718.43,87.1766667 718.43,96.69 C718.43,105.99 715.65,113.736667 710.09,119.93 C704.856053,125.957919 697.211206,129.344227 689.23,129.17 C681.97,129.17 675.473333,126.263333 669.74,120.45 L669.71,161.14 Z M703.78,96.76 C703.78,90.8133333 702.166667,85.9733333 698.94,82.24 C695.902401,78.5668469 691.35559,76.4793632 686.59,76.57 C681.728438,76.3880764 677.037832,78.3779193 673.79,82 C670.523333,85.6533333 668.89,90.45 668.89,96.39 C668.89,102.203333 670.523333,107 673.79,110.78 C676.979593,114.459306 681.663817,116.496245 686.53,116.32 C691.266384,116.425633 695.791945,114.363539 698.82,110.72 C702.170979,106.852585 703.941925,101.864659 703.78,96.75 L703.78,96.76 Z" id="Shape" stroke="#0E3C55" fill="#0E3C55" fill-rule="nonzero"></path>
            <polygon id="Path" stroke="#0E3C55" fill="#0E3C55" fill-rule="nonzero" points="747.91 19.83 747.91 127.39 733.58 127.39 733.58 19.83"></polygon>
            <polygon id="Path" stroke="#0E3C55" fill="#0E3C55" fill-rule="nonzero" points="786.76 115.86 758.87 65.36 775.49 65.36 794.49 101.02 812.19 65.36 828.36 65.36 778.93 161.14 762.56 161.14"></polygon>
            <path d="M105.95,63.49 L105.95,118.49 C105.95,123.41638 101.95638,127.41 97.03,127.41 L8.92,127.41 C3.99362003,127.41 0,123.41638 0,118.49 L0,30.39 C0,25.46362 3.99362003,21.47 8.92,21.47 L63.92,21.47 L42.38,42.84 L30.86,42.84 C30.7068627,42.8290336 30.5531373,42.8290336 30.4,42.84 L30.23,42.84 C30.0835637,42.8283751 29.9364363,42.8283751 29.79,42.84 C25.0709454,43.1055289 21.3825356,47.0134869 21.39,51.74 L21.39,97.1 C21.4120012,102.017899 25.4020553,105.994548 30.32,106 L75.64,106 C80.5237401,106.000371 84.4997745,102.073369 84.56,97.19 L84.56,85 L105.95,63.49 Z" id="Path" fill="#F47721" fill-rule="nonzero"></path>
            <polygon id="Path" fill="#1896BA" points="127.39 0.43 127.38 5.54 127.39 5.53 127.38 13.64 127.34 41.94 105.93 63.52 105.93 57.64 105.92 26.96 105.92 21.53 105.98 21.47 127.39 0.07"></polygon>
            <polygon id="Path" fill="#0E3C55" points="127.39 0 127.39 0.07 105.98 21.47 100.51 21.47 69.84 21.46 63.97 21.46 85.54 0.05 121.95 0 121.93 0.01 127.04 0"></polygon>
            <polygon id="Path" fill="#171617" points="105.98 21.47 105.92 21.53 105.92 21.47"></polygon>
            <polygon id="Path" fill="#231F20" fill-rule="nonzero" points="837.44 63.5 833.96 63.5 833.96 50 829.5 50 829.5 47.1 841.9 47.1 841.9 50 837.44 50"></polygon>
            <path d="M851.38,63.5 L847.38,50.62 L847.28,50.62 C847.42,53.24 847.49,54.9866667 847.49,55.86 L847.49,63.5 L844.43,63.5 L844.43,47.08 L849.17,47.08 L853.06,59.64 L853.13,59.64 L857.23,47.08 L861.97,47.08 L861.97,63.5 L858.72,63.5 L858.72,55.73 C858.72,55.3633333 858.72,54.94 858.72,54.46 C858.72,53.98 858.77,52.7066667 858.87,50.64 L858.77,50.64 L854.57,63.5 L851.38,63.5 Z" id="Path" fill="#231F20" fill-rule="nonzero"></path>
        </g>
    </g>
</svg>