<svg xmlns="http://www.w3.org/2000/svg" width="199.666" height="40.38" viewBox="0 0 199.666 40.38">
    <defs>
        <style>
            .cls-1{fill:#0077b9}.cls-2{fill:#d52a3f}.cls-3{fill:#07b}.cls-4{fill:#d4293e}
        </style>
    </defs>
    <g id="Group_89002" transform="translate(-122.826 -296.234)">
        <path id="Path_183843" d="M275.953 341.254c-.165-3.112-.365-6.855-.33-9.637h-.1c-.762 2.617-1.688 5.4-2.814 8.477l-3.942 10.832h-2.187l-3.61-10.632c-1.06-3.147-1.954-6.027-2.582-8.676h-.069c-.064 2.782-.23 6.525-.429 9.869l-.6 9.571h-2.75l1.557-22.322h3.677l3.809 10.8c.927 2.75 1.688 5.2 2.252 7.518h.1c.564-2.252 1.358-4.7 2.351-7.518l3.974-10.8h3.677l1.392 22.322h-2.814z" class="cls-1" transform="translate(-89.8 -21.826)"/>
        <path id="Path_183844" d="M338.989 355.693c.066 3.94 2.583 5.562 5.5 5.562a10.577 10.577 0 0 0 4.438-.826l.5 2.085a12.991 12.991 0 0 1-5.332.993c-4.935 0-7.883-3.243-7.883-8.08s2.848-8.646 7.518-8.646c5.233 0 6.623 4.605 6.623 7.552a11.308 11.308 0 0 1-.1 1.36zm8.545-2.087c.032-1.855-.761-4.738-4.041-4.738-2.947 0-4.238 2.717-4.472 4.738z" class="cls-1" transform="translate(-143.299 -33.945)"/>
        <path id="Path_183845" d="M404.546 325.107v19.375c0 1.424.035 3.046.133 4.14h-2.615l-.133-2.782h-.066a5.929 5.929 0 0 1-5.465 3.147c-3.876 0-6.855-3.28-6.855-8.148-.034-5.333 3.279-8.612 7.186-8.612a5.363 5.363 0 0 1 4.837 2.452h.067v-9.571zm-2.913 14.008a5.185 5.185 0 0 0-.133-1.225 4.287 4.287 0 0 0-4.206-3.378c-3.014 0-4.8 2.649-4.8 6.193 0 3.247 1.589 5.931 4.736 5.931a4.383 4.383 0 0 0 4.273-3.479 5.1 5.1 0 0 0 .133-1.259z" class="cls-1" transform="translate(-179.118 -19.39)"/>
        <path id="Path_183846" d="M449.516 330.453a1.805 1.805 0 0 1-3.61 0 1.776 1.776 0 0 1 1.821-1.823 1.732 1.732 0 0 1 1.789 1.823m-3.247 4.5h2.915v16.031h-2.915z" class="cls-1" transform="translate(-216.968 -21.756)"/>
        <path id="Path_183847" d="M467.181 328.692a28.011 28.011 0 0 1 5.265-.463c2.881 0 4.736.5 6.126 1.624a4.675 4.675 0 0 1 1.855 3.94 5.3 5.3 0 0 1-3.775 4.9v.066a5.755 5.755 0 0 1 4.6 5.6 6.022 6.022 0 0 1-1.888 4.472c-1.557 1.424-4.075 2.085-7.717 2.085a33.586 33.586 0 0 1-4.47-.264zm2.88 9.142h2.617c3.048 0 4.835-1.589 4.835-3.741 0-2.619-1.986-3.646-4.9-3.646a12.4 12.4 0 0 0-2.55.2zm0 10.7a15.432 15.432 0 0 0 2.417.133c2.982 0 5.731-1.094 5.731-4.339 0-3.048-2.617-4.307-5.763-4.307h-2.385z" class="cls-2" transform="translate(-231.256 -21.487)"/>
        <path id="Path_183848" d="M533.829 359.55c0 1.656.034 3.112.133 4.372h-2.585l-.165-2.617h-.064a6.03 6.03 0 0 1-5.3 2.981c-2.518 0-5.532-1.39-5.532-7.02v-9.376h2.915v8.878c0 3.048.927 5.1 3.578 5.1a4.213 4.213 0 0 0 3.841-2.649 4.29 4.29 0 0 0 .266-1.493v-9.836h2.913z" class="cls-2" transform="translate(-266.939 -34.69)"/>
        <path id="Path_183849" d="M587.146 325.107v19.375c0 1.424.034 3.046.133 4.14h-2.615l-.133-2.782h-.067a5.929 5.929 0 0 1-5.464 3.146c-3.876 0-6.855-3.28-6.855-8.148-.034-5.333 3.277-8.612 7.186-8.612a5.364 5.364 0 0 1 4.837 2.452h.066v-9.571zm-2.913 14.008a5.169 5.169 0 0 0-.133-1.225 4.286 4.286 0 0 0-4.206-3.378c-3.013 0-4.8 2.649-4.8 6.193 0 3.247 1.589 5.931 4.736 5.931a4.383 4.383 0 0 0 4.273-3.479 5.088 5.088 0 0 0 .133-1.259z" class="cls-2" transform="translate(-301.745 -19.39)"/>
        <path id="Path_183850" d="M643.51 325.107v19.375c0 1.424.034 3.046.133 4.14h-2.617l-.133-2.782h-.067a5.928 5.928 0 0 1-5.463 3.147c-3.876 0-6.857-3.28-6.857-8.148-.032-5.333 3.279-8.612 7.187-8.612a5.361 5.361 0 0 1 4.835 2.452h.067v-9.571zm-2.91 14.008a5.067 5.067 0 0 0-.133-1.225 4.283 4.283 0 0 0-4.206-3.378c-3.013 0-4.8 2.649-4.8 6.193 0 3.247 1.589 5.931 4.736 5.931a4.383 4.383 0 0 0 4.273-3.479 4.994 4.994 0 0 0 .133-1.259z" class="cls-2" transform="translate(-339.596 -19.39)"/>
        <path id="Path_183851" d="M688.053 347.893l3.511 9.472c.365 1.06.761 2.319 1.027 3.28h.064c.3-.961.631-2.186 1.027-3.344l3.179-9.408h3.08l-4.372 11.426c-2.085 5.5-3.509 8.314-5.5 10.036a7.928 7.928 0 0 1-3.578 1.89l-.727-2.452a7.721 7.721 0 0 0 2.55-1.424 8.829 8.829 0 0 0 2.449-3.248 2.08 2.08 0 0 0 .234-.695 2.538 2.538 0 0 0-.2-.761l-5.929-14.772z" class="cls-2" transform="translate(-377.45 -34.692)"/>
        <g id="Group_89001" transform="translate(122.826 296.234)">
            <path id="Path_183852" d="M168.8 301.184a4.533 4.533 0 0 0 .027-.489 4.459 4.459 0 0 0-7.614-3.153l-8.143 8.143a4.771 4.771 0 0 1 2.044.728l7.411-7.413a2.5 2.5 0 1 1 3.533 3.533l-7.317 7.317 1.386 1.386 7.317-7.317.02-.021.032-.032a2.5 2.5 0 1 1 3.481 3.587l-7.316 7.316 1.386 1.386 7.391-7.391a4.459 4.459 0 0 0-3.153-7.614 4.522 4.522 0 0 0-.485.034z" class="cls-3" transform="translate(-143.137 -296.234)"/>
            <path id="Path_183853" d="M194.538 328.122l7.51 7.51a2.5 2.5 0 1 1-3.533 3.533l-7.4-7.4-1.386 1.386 7.4 7.4.021.021.032.032a2.5 2.5 0 1 1-3.587 3.482l-7.658-7.658-1.386 1.386 7.732 7.733a4.459 4.459 0 0 0 7.614-3.153 4.536 4.536 0 0 0-.027-.489 4.521 4.521 0 0 0 .489.027 4.459 4.459 0 0 0 3.152-7.614l-8.291-8.291a4.78 4.78 0 0 1-.682 2.095z" class="cls-4" transform="translate(-164.273 -316.243)"/>
            <path id="Path_183854" d="M173.733 368.977a4.778 4.778 0 0 1-2.056-.717l-7.4 7.4a2.5 2.5 0 1 1-3.533-3.533l7.339-7.339-1.386-1.386-7.339 7.339-.02.021-.032.031a2.5 2.5 0 1 1-3.482-3.587l7.317-7.317-1.386-1.386-7.391 7.391a4.458 4.458 0 0 0 3.636 7.585 4.528 4.528 0 0 0-.027.489 4.459 4.459 0 0 0 7.614 3.153z" class="cls-3" transform="translate(-143.123 -338.049)"/>
            <path id="Path_183855" d="M135.362 327.272a4.459 4.459 0 0 0-7.614 3.153 4.534 4.534 0 0 0 .027.489 4.535 4.535 0 0 0-.489-.027 4.459 4.459 0 0 0-3.153 7.614l8.291 8.291a4.777 4.777 0 0 1 .679-2.093l-7.51-7.51a2.5 2.5 0 1 1 3.533-3.533l7.4 7.4 1.386-1.386-7.4-7.4-.021-.021-.032-.031a2.5 2.5 0 1 1 3.586-3.481l9.044 9.044 1.386-1.386-9.119-9.118z" class="cls-4" transform="translate(-122.826 -316.2)"/>
        </g>
    </g>
</svg>
