<svg xmlns="http://www.w3.org/2000/svg" width="404.353" height="81.786"><defs><style>.cls-2{fill:#1778f2}.cls-3{fill:#f40009}</style></defs><g id="Group_104656"><path id="Rectangle_7313" fill="none" d="M0 0h404.353v81.785H0z"/><g id="Group_104655" transform="translate(13.571)"><g id="Group_1"><g id="Group_106796" transform="translate(19.938)"><path id="Path_50" d="M355.661 544.691a9.784 9.784 0 01-3.511-1.231.261.261 0 00-.318.039l-14.846 14.839a5.065 5.065 0 01-7.153.367 5.067 5.067 0 01-.472-7.034l.1-.121.036-.039.016-.018c.1-.107.2-.221.3-.32l14.735-14.734a.194.194 0 000-.274l-2.534-2.534a.193.193 0 00-.274 0l-14.731 14.735a.277.277 0 01-.039.038l-.066.063a5.064 5.064 0 01-7.225-7.094c.057-.057.112-.12.17-.176l14.683-14.676a.194.194 0 000-.274L332 523.712a.193.193 0 00-.274 0l-14.839 14.833a9.037 9.037 0 006.39 15.426 7.972 7.972 0 00.992-.056 8.378 8.378 0 00-.055.995 9.038 9.038 0 0015.426 6.39l16.163-16.167a.261.261 0 00-.147-.443z" class="cls-2" transform="translate(-314.247 -482.168)"/><path id="Path_50-2" d="M315.412 390.709a9.8 9.8 0 013.511 1.231.261.261 0 00.317-.039l14.846-14.84a5.066 5.066 0 017.154-.365 5.068 5.068 0 01.473 7.033l-.1.12c-.013.012-.024.026-.036.039l-.016.018c-.1.108-.2.222-.3.321l-14.741 14.735a.194.194 0 000 .274l2.534 2.533a.194.194 0 00.274 0l14.731-14.735a.265.265 0 01.041-.034l.067-.063a5.064 5.064 0 017.225 7.094c-.057.057-.112.12-.17.175l-14.683 14.676a.194.194 0 000 .274l2.532 2.535a.194.194 0 00.274 0l14.839-14.834a9.037 9.037 0 00-6.39-15.426 8 8 0 00-.992.056 8.2 8.2 0 00.055-.995 9.038 9.038 0 00-15.426-6.39l-16.164 16.167a.261.261 0 00.148.442z" class="cls-2" transform="translate(-314.932 -371.456)"/></g><path id="Path_75" d="M303.628 445.076a9.8 9.8 0 01-1.231 3.511.261.261 0 00.039.318l14.84 14.846a5.065 5.065 0 01.366 7.154l-.026.031a4.823 4.823 0 01-6.79.647q-.177-.146-.339-.308l-.039-.036-.018-.016c-.108-.1-.222-.2-.321-.3l-14.734-14.734a.194.194 0 00-.274 0l-2.534 2.534a.194.194 0 000 .274l14.733 14.727a.278.278 0 01.038.039l.063.066a5.064 5.064 0 01-7.095 7.225c-.057-.057-.12-.111-.175-.17l-13.444-13.451-5.354-5.354-14.833-14.838a9.037 9.037 0 00-15.426 6.39 7.933 7.933 0 00.056.992 8.355 8.355 0 00-.994-.055 9.038 9.038 0 00-6.39 15.426l16.168 16.163a.261.261 0 00.443-.147 9.8 9.8 0 011.231-3.511.261.261 0 00-.039-.318l-14.839-14.846a5.065 5.065 0 01-.367-7.154 5.347 5.347 0 017.065-.44l.09.07.04.036.017.016c.108.1.222.2.321.3l14.736 14.737a.194.194 0 00.274 0l2.534-2.534a.194.194 0 000-.274l-14.736-14.731a.3.3 0 01-.038-.039l-.062-.067a5.064 5.064 0 017.094-7.225c.058.056.12.112.175.17l14.608 14.616 5.422 5.422 13.6 13.605a9.037 9.037 0 0015.426-6.39 7.941 7.941 0 00-.056-.992 8.336 8.336 0 00.995.055 9.038 9.038 0 006.39-15.426l-16.167-16.163a.261.261 0 00-.444.147z" class="cls-3" transform="translate(-241.105 -424.658)"/></g><g id="Group_2" transform="translate(91.318 19.034)"><path id="Path_1" d="M614.918 441.284a2.8 2.8 0 00-1.65.419 3.9 3.9 0 00-1.067 1.345l-15.442 29.208-15.5-29.208a3.718 3.718 0 00-1.1-1.347 2.836 2.836 0 00-1.617-.417c-1.614 0-2.433.859-2.433 2.553v38.552c0 1.695.819 2.554 2.433 2.554 1.574 0 2.372-.859 2.372-2.554v-30.637l13.551 25.089a3.146 3.146 0 00.885 1.136 2.786 2.786 0 002.791.031 3.44 3.44 0 00.916-1.164l13.369-25.144v30.69c0 1.695.818 2.554 2.432 2.554s2.432-.859 2.432-2.554v-38.553c.001-1.694-.798-2.553-2.372-2.553z" class="cls-2" transform="translate(-576.106 -441.284)"/><path id="Path_2" d="M774.317 503.812c0-4.478-1.149-8.051-3.414-10.62s-5.452-3.878-9.457-3.878a14.171 14.171 0 00-7.4 1.92 13.45 13.45 0 00-5.029 5.425 17.249 17.249 0 00-1.826 8.059c0 4.682 1.373 8.44 4.083 11.17S757.708 520 762.351 520a19.666 19.666 0 005.378-.79 15.149 15.149 0 004.775-2.251 2.439 2.439 0 001.3-2.081 2 2 0 00-1.035-1.776 2.3 2.3 0 00-2.472.368 12.176 12.176 0 01-3.936 1.82 16.546 16.546 0 01-4.009.509 9.922 9.922 0 01-7.262-2.584c-1.711-1.69-2.668-4.177-2.847-7.392h19.822c1.494-.001 2.252-.677 2.252-2.011zm-22.006-1.467a11.19 11.19 0 012.783-6.582 8.446 8.446 0 016.473-2.549 7.488 7.488 0 015.958 2.425 10.8 10.8 0 012.282 6.707z" class="cls-2" transform="translate(-700.553 -476.221)"/><path id="Path_3" d="M881.842 441.284a2.317 2.317 0 00-2.614 2.614v15.711a9.57 9.57 0 00-3.682-3.706 12.147 12.147 0 00-6.133-1.526 12.788 12.788 0 00-6.922 1.861 12.27 12.27 0 00-4.577 5.308 21.379 21.379 0 000 16.288 12.456 12.456 0 004.576 5.338 12.627 12.627 0 006.923 1.893 11.96 11.96 0 006.134-1.558 10.013 10.013 0 003.74-3.8v2.567c0 1.774.859 2.674 2.553 2.674s2.553-.9 2.553-2.674V443.9a2.29 2.29 0 00-2.551-2.616zm-2.492 28.436c0 3.569-.821 6.35-2.44 8.265a8.747 8.747 0 01-12.968 0c-1.6-1.915-2.411-4.7-2.411-8.266 0-3.609.811-6.4 2.41-8.3a8.81 8.81 0 0112.969 0c1.619 1.901 2.44 4.692 2.44 8.301z" class="cls-2" transform="translate(-779.924 -441.284)"/><path id="Path_4" d="M983.8 449.75c2.215 0 3.338-1.062 3.338-3.156 0-2.055-1.123-3.1-3.338-3.1s-3.337 1.042-3.337 3.1c.003 2.094 1.126 3.156 3.337 3.156z" class="cls-2" transform="translate(-870.241 -442.894)"/><path id="Path_5" d="M985.9 490.2c-1.694 0-2.553.92-2.553 2.734v24.676c0 1.855.859 2.8 2.553 2.8 1.735 0 2.614-.94 2.614-2.8v-24.678c-.005-1.814-.884-2.732-2.614-2.732z" class="cls-2" transform="translate(-872.333 -476.864)"/></g><g id="Group_3" transform="translate(217.765 19.034)"><path id="Path_6" d="M1064.517 463.648a10.393 10.393 0 004.67-3.517 10.013 10.013 0 001.837-6.055 10.136 10.136 0 00-3.642-8.283c-2.407-1.963-5.857-2.958-10.254-2.958h-14.3a2.53 2.53 0 00-2.855 2.855v37.1a2.531 2.531 0 002.855 2.855h15.022c4.478 0 8-1.026 10.466-3.048s3.732-4.989 3.732-8.8a10.358 10.358 0 00-2.113-6.664 10.61 10.61 0 00-5.418-3.485zm2.366 10.1c0 5.143-3.112 7.643-9.513 7.643h-12.288V466.1h12.288c6.401 0 9.513 2.5 9.513 7.643zm-21.8-11.9V447.1h11.317c6.361 0 9.453 2.421 9.453 7.4 0 4.939-3.093 7.341-9.453 7.341z" class="cls-3" transform="translate(-1039.975 -442.411)"/><path id="Path_7" d="M1200.444 489.755a2.316 2.316 0 00-2.614 2.613v14.6a9.242 9.242 0 01-2.315 6.571 7.88 7.88 0 01-5.992 2.46c-2.24 0-3.9-.613-4.932-1.822s-1.565-3.132-1.565-5.7v-16.109a2.316 2.316 0 00-2.613-2.613 2.29 2.29 0 00-2.553 2.613v16.169c0 7.82 3.6 11.785 10.7 11.785a11.436 11.436 0 005.71-1.436 9.856 9.856 0 003.683-3.652v2.294c0 1.775.859 2.674 2.553 2.674 1.654 0 2.493-.9 2.493-2.674v-25.16a2.29 2.29 0 00-2.555-2.613z" class="cls-3" transform="translate(-1140.274 -476.542)"/><path id="Path_8" d="M1312.955 441.284a2.317 2.317 0 00-2.614 2.614v15.711a9.578 9.578 0 00-3.682-3.706 12.149 12.149 0 00-6.133-1.526 12.791 12.791 0 00-6.922 1.861 12.266 12.266 0 00-4.577 5.308 21.373 21.373 0 000 16.288 12.448 12.448 0 004.576 5.338 12.623 12.623 0 006.923 1.893 11.957 11.957 0 006.134-1.558 10.016 10.016 0 003.741-3.8v2.567c0 1.774.859 2.674 2.554 2.674s2.553-.9 2.553-2.674V443.9a2.29 2.29 0 00-2.553-2.616zm-2.493 28.436c0 3.569-.821 6.35-2.44 8.265a8.747 8.747 0 01-12.968 0c-1.6-1.915-2.41-4.7-2.41-8.266 0-3.609.81-6.4 2.41-8.3a8.81 8.81 0 0112.969 0c1.617 1.901 2.439 4.692 2.439 8.301z" class="cls-3" transform="translate(-1219.965 -441.284)"/><path id="Path_9" d="M1433.353 441.284a2.317 2.317 0 00-2.614 2.614v15.711a9.574 9.574 0 00-3.682-3.706 12.15 12.15 0 00-6.132-1.526 12.783 12.783 0 00-6.922 1.861 12.266 12.266 0 00-4.578 5.308 21.373 21.373 0 000 16.288 12.449 12.449 0 004.577 5.338 12.619 12.619 0 006.923 1.893 11.957 11.957 0 006.134-1.558 10.013 10.013 0 003.741-3.8v2.567c0 1.774.86 2.674 2.554 2.674s2.553-.9 2.553-2.674V443.9a2.29 2.29 0 00-2.554-2.616zm-2.493 28.436c0 3.569-.822 6.35-2.44 8.265a8.747 8.747 0 01-12.968 0c-1.6-1.915-2.412-4.7-2.412-8.266 0-3.609.812-6.4 2.411-8.3a8.81 8.81 0 0112.97 0c1.617 1.901 2.439 4.692 2.439 8.301z" class="cls-3" transform="translate(-1307.543 -441.284)"/><path id="Path_10" d="M1551.727 490.861a2 2 0 00-2-1.106 2.659 2.659 0 00-1.655.452 4.052 4.052 0 00-1.069 1.565l-9.041 21.948-8.981-21.947a2.755 2.755 0 00-2.6-2.018 2.433 2.433 0 00-2.325 1.1 2.758 2.758 0 00.024 2.537l11.076 25.766-3.657 8.274a3.056 3.056 0 00-.058 2.494 1.992 1.992 0 002 1.138 2.807 2.807 0 001.683-.45 3.888 3.888 0 001.1-1.566l15.445-35.719a2.98 2.98 0 00.058-2.468z" class="cls-3" transform="translate(-1391.884 -476.542)"/></g></g></g></svg>